<?xml version="1.0" encoding="utf-8"?>
<!-- Generator: Adobe Illustrator 19.1.0, SVG Export Plug-In . SVG Version: 6.00 Build 0)  -->
<svg version="1.1" id="Layer_1" xmlns="http://www.w3.org/2000/svg" xmlns:xlink="http://www.w3.org/1999/xlink" x="0px" y="0px"
	 viewBox="0 0 84.3 81.7" enable-background="new 0 0 84.3 81.7" xml:space="preserve">
<g id="layer1" transform="translate(-163.82485,-265.4736)" inkscape:label="Layer 1" inkscape:groupmode="layer">
	<g id="g4983">
		<path id="path3620" fill="none" stroke="#1595A3" stroke-width="4" d="M187.2,269c-16.4,25.8-6.1,67.6,24.7,77.1"/>
		<path id="path3935" fill="none" stroke="#1595A3" stroke-width="4" d="M187.2,269c32.1,2.9,48.4,41,41,69.3"/>
		<path id="path4227" fill="none" stroke="#1595A3" stroke-width="4" d="M186.8,269l33.9,74.2"/>
		<path id="path4229" fill="none" stroke="#1595A3" stroke-width="4" d="M169.1,286c16.7,8.9,37.7-2.8,44.5-19.1"/>
		<path id="path4231" fill="none" stroke="#1595A3" stroke-width="4" d="M164.5,304c24.6,7.9,54.4-4.4,65.1-28.3"/>
		<path id="path4233" fill="none" stroke="#1595A3" stroke-width="4" d="M167.7,323.8c27.7,6.8,61.5-5.5,72.5-33.2"/>
		
			<path id="path4750" sodipodi:type="arc" sodipodi:cy="308.66263" sodipodi:start="0" sodipodi:rx="39.766212" sodipodi:ry="40.835579" sodipodi:open="true" sodipodi:end="6.2718853" sodipodi:cx="204.88419" fill="none" stroke="#1595A3" stroke-width="4" d="
			M243.4,305.8c0.3,22.6-17.3,41.1-39.3,41.3c-22,0.3-40-17.8-40.3-40.3c-0.3-22.6,17.3-41.1,39.3-41.3
			c21.8-0.3,39.7,17.5,40.3,39.9"/>
		<path id="path4235" fill="none" stroke="#1595A3" stroke-width="4" d="M178.7,338.3c24.6,8.7,55.4-4.2,64.7-29"/>
	</g>
</g>
<path fill="#225378" d="M25.8,78.6L10.6,51.2c0,0-1.1-1.5-0.4-2.8c1.2-1.8,3.4,0.1,3.4,0.1L27.1,58l2.1,0.7l3.6-2l43.1-43.2
	c0,0,4-4.7,7-2.8c3,1.9,0.4,5.5,0.4,5.5l-51.8,63c0,0-0.9,1.3-2.7,1.4C26.9,80.6,25.8,78.6,25.8,78.6z"/>
<rect x="77.5" y="39.8" fill="#1595A3" width="4" height="0.5"/>
</svg>
